<svg width="80" height="84" viewBox="0 0 80 84" fill="none" xmlns="http://www.w3.org/2000/svg">
<g filter="url(#filter0_d_558_2252)">
<rect x="10" y="10" width="60" height="60" rx="30" fill="white"/>
<path d="M27.1273 38.5V44.775C27.1273 45.5417 27.0107 46.325 26.7773 47.125C26.5607 47.9083 26.2023 48.6167 25.7023 49.25C25.2023 49.8667 24.544 50.375 23.7273 50.775C22.9107 51.175 21.9107 51.375 20.7273 51.375C19.444 51.375 18.3773 51.1667 17.5273 50.75C16.694 50.3333 15.9857 49.775 15.4023 49.075L17.0523 47.25C17.4857 47.8167 17.994 48.25 18.5773 48.55C19.1773 48.85 19.919 49 20.8023 49C21.5357 49 22.144 48.875 22.6273 48.625C23.1273 48.375 23.519 48.0333 23.8023 47.6C24.1023 47.15 24.3107 46.6167 24.4273 46C24.5607 45.3833 24.6273 44.7167 24.6273 44V38.5H27.1273ZM29.3848 38.5H31.8848V51H29.3848V38.5ZM39.8896 41.475H41.8646C43.248 41.475 44.2313 41.225 44.8146 40.725C45.398 40.2083 45.6896 39.4917 45.6896 38.575C45.6896 37.7083 45.3896 37.025 44.7896 36.525C44.2063 36.0083 43.2146 35.75 41.8146 35.75H39.8896V33.5H42.1396C44.223 33.5 45.773 33.95 46.7896 34.85C47.8063 35.7333 48.3146 36.975 48.3146 38.575C48.3146 39.7583 48.048 40.75 47.5146 41.55C46.998 42.35 46.198 42.9333 45.1146 43.3L48.0396 51H45.3646L42.6146 43.725H42.1396H39.8896V41.475ZM34.3896 42.875H36.8896V51H34.3896V42.875ZM57.0826 33.125L65.6076 51H62.8326L60.2326 45.55H51.1576L57.0826 33.125ZM55.0076 43.3H59.1576L57.0826 38.95L55.0076 43.3Z" fill="black"/>
</g>
<defs>
<filter id="filter0_d_558_2252" x="-2" y="0" width="84" height="84" filterUnits="userSpaceOnUse" color-interpolation-filters="sRGB">
<feFlood flood-opacity="0" result="BackgroundImageFix"/>
<feColorMatrix in="SourceAlpha" type="matrix" values="0 0 0 0 0 0 0 0 0 0 0 0 0 0 0 0 0 0 127 0" result="hardAlpha"/>
<feOffset dy="2"/>
<feGaussianBlur stdDeviation="6"/>
<feComposite in2="hardAlpha" operator="out"/>
<feColorMatrix type="matrix" values="0 0 0 0 1 0 0 0 0 1 0 0 0 0 1 0 0 0 0.18 0"/>
<feBlend mode="normal" in2="BackgroundImageFix" result="effect1_dropShadow_558_2252"/>
<feBlend mode="normal" in="SourceGraphic" in2="effect1_dropShadow_558_2252" result="shape"/>
</filter>
</defs>
</svg>
