<svg version="1.2" xmlns="http://www.w3.org/2000/svg" viewBox="0 0 60 60" width="60" height="60"><style>.a{fill:#fff}</style><path fill-rule="evenodd" class="a" d="m30 0c16.6 0 30 13.4 30 30 0 16.6-13.4 30-30 30-16.6 0-30-13.4-30-30 0-16.6 13.4-30 30-30z"/><path  d="m17.1 28.5v6.3q0 1.1-0.3 2.3-0.3 1.2-1.1 2.2-0.7 0.9-2 1.5-1.2 0.6-3 0.6-1.9 0-3.2-0.6-1.2-0.7-2.1-1.7l1.7-1.8q0.6 0.8 1.5 1.2 0.9 0.5 2.2 0.5 1.1 0 1.8-0.4 0.8-0.4 1.2-1 0.5-0.7 0.6-1.6 0.2-0.9 0.2-2v-5.5zm2.3 0h2.5v12.5h-2.5zm10.5 3h2q2 0 2.9-0.8 0.9-0.8 0.9-2.1 0-1.3-0.9-2.1-0.9-0.8-3-0.7h-1.9v-2.3h2.2q3.2 0 4.7 1.4 1.5 1.3 1.5 3.7 0 1.7-0.8 2.9-0.8 1.2-2.4 1.8l2.9 7.7h-2.6l-2.8-7.3h-0.5-2.2zm-5.5 1.4h2.5v8.2h-2.5zm22.7-9.8l8.5 17.9h-2.8l-2.6-5.5h-9zm-2.1 10.2h4.1l-2-4.3z"/></svg>