<svg width="60" height="60" viewBox="0 0 60 60" fill="none" xmlns="http://www.w3.org/2000/svg">
<path d="M51.638 53.6386C45.4287 58.4196 37.8039 60.9962 29.9674 60.9616C22.1309 60.927 14.5291 58.2832 8.3623 53.4476L17.6602 49.089C18.103 48.8809 18.528 48.6367 18.9309 48.3591C19.0532 48.275 19.1755 48.1871 19.292 48.0954C20.304 47.3211 21.1369 46.3376 21.734 45.212C22.1855 44.3472 22.4853 43.4114 22.6207 42.4452C22.714 41.8183 22.7612 41.1854 22.762 40.5516C22.762 39.4586 22.7028 38.3657 22.6913 37.2708C22.6837 36.6657 22.6773 36.06 22.6722 35.4536L23.0544 35.6447L24.048 36.1587L24.5085 36.237L29.8358 37.1428L35.7822 38.1555L35.9618 44.27L36.0211 46.2687L36.0497 47.2394V47.2986L38.3618 48.2387L51.638 53.6386Z" fill="#F2A196"/>
<path d="M36.027 46.8455C35.3703 46.9585 34.6946 46.8538 34.1029 46.5474L22.7069 37.2265C22.6935 36.7947 22.6821 37.2475 22.6763 36.8157C22.6687 36.2106 22.6623 35.6049 22.6572 34.9985L23.0394 35.1896L24.033 35.7036L24.4935 35.782L29.8208 36.6877L35.7672 37.7004L35.9468 43.8149L36.006 45.8136L36.0347 46.7843V46.8474L36.027 46.8455Z" fill="#E88870"/>
<path d="M51.638 53.6384C45.4287 58.4194 37.8039 60.996 29.9674 60.9614C22.1309 60.9268 14.5291 58.2829 8.3623 53.4473L17.6602 49.0888C18.103 48.8807 18.528 48.6365 18.9309 48.3589C19.0532 48.2748 19.1755 48.1869 19.292 48.0952C23.792 51.2977 29.9333 53.3174 35.2453 50.927C36.5102 50.3538 37.672 49.4289 38.3599 48.2404L51.638 53.6384Z" fill="#FF2609"/>
<path d="M48.2179 15.3689C48.2007 15.4817 48.1796 15.5925 48.1548 15.7033C48.0222 16.2714 47.8093 16.8177 47.5223 17.3256L47.507 17.3523C47.3981 17.5434 47.2816 17.7345 47.1555 17.9256C46.8209 18.4161 46.4558 18.8852 46.0625 19.33L45.8275 19.5918C45.6689 19.7695 45.5084 19.9434 45.3478 20.1153C45.469 20.0894 45.5934 20.0823 45.7166 20.0943C45.7624 20.0981 45.8078 20.1057 45.8523 20.1173C46.4618 20.2434 46.9835 20.8109 47.1459 21.4548C47.1555 21.4968 47.165 21.5408 47.1727 21.5828C47.3236 22.4389 46.9816 23.3025 46.5593 24.0669C45.8198 25.4197 44.7536 26.3197 43.8154 27.4948C43.1122 28.37 42.7224 29.4056 41.9562 30.2425L41.8989 30.3056L41.853 30.3515C39.8276 32.438 36.6614 32.9329 34.0188 33.8348C33.0634 34.1635 22.703 37.1061 22.703 37.7481C22.703 37.6087 21.6884 36.6017 20.4101 35.3768C15.8242 31.0221 14.3166 24.2942 17.0452 18.5237C19.9783 12.3136 26.6393 7.88244 32.9831 5.75382C34.9665 5.08886 37.2174 4.64174 39.0976 5.56274C40.9779 6.48374 41.9142 9.34038 40.3549 10.7353C41.3356 9.99328 42.5554 9.63885 43.781 9.73973C44.913 9.81065 45.9806 10.2908 46.7848 11.0907C47.2341 11.541 47.5956 12.071 47.851 12.6537C47.9561 12.8955 48.0436 13.1445 48.1128 13.3989C48.2848 14.0411 48.3206 14.7121 48.2179 15.3689Z" fill="#F2D4CF"/>
<path d="M48.2177 15.3692C48.2005 15.4819 48.1795 15.5927 48.1547 15.7036C48.0221 16.2717 47.8091 16.8179 47.5222 17.3258L47.5069 17.3526C47.398 17.5437 47.2814 17.7347 47.1553 17.9258C46.8207 18.4164 46.4557 18.8854 46.0624 19.3303L45.8273 19.592C45.6687 19.7697 45.5082 19.9436 45.3477 20.1156C45.4688 20.0896 45.5932 20.0825 45.7165 20.0946C45.7623 20.0983 45.8077 20.106 45.8522 20.1175C46.4617 20.2436 46.9834 20.8111 47.1458 21.4551C47.1553 21.4971 47.1649 21.541 47.1725 21.5831C47.3235 22.4391 46.9814 23.3028 46.5592 24.0671C45.8197 25.42 44.7535 26.3199 43.8153 27.4951C43.1121 28.3702 42.7223 29.4059 41.9561 30.2428L41.8987 30.3059L41.8529 30.3517C41.0846 29.3179 40.595 28.1039 40.4312 26.8263C40.1045 24.1818 40.3032 21.3003 40.2134 18.6233C40.1828 17.6889 40.1274 16.5749 40.4274 15.6883C40.5094 15.4688 40.6193 15.2607 40.7542 15.0692C41.1058 14.5019 41.5067 13.9668 41.9522 13.4699C42.4575 12.932 43.0954 12.5366 43.8019 12.3234C44.1833 12.215 44.5743 12.1433 44.9694 12.1094C45.3918 12.0679 45.8177 12.0763 46.2382 12.1342C46.7991 12.2143 47.3413 12.3935 47.8394 12.6635C47.9445 12.9053 48.032 13.1543 48.1012 13.4087C48.2757 14.047 48.3154 14.7147 48.2177 15.3692Z" fill="#DAAEA8"/>
<path d="M20.7923 33.3497C22.5863 33.3497 24.0406 31.8954 24.0406 30.1014C24.0406 28.3074 22.5863 26.853 20.7923 26.853C18.9983 26.853 17.5439 28.3074 17.5439 30.1014C17.5439 31.8954 18.9983 33.3497 20.7923 33.3497Z" fill="#F2A196"/>
<path d="M21.8233 33.0093C23.4294 33.0093 24.7315 31.7073 24.7315 30.1011C24.7315 28.4949 23.4294 27.1929 21.8233 27.1929C20.2171 27.1929 18.915 28.4949 18.915 30.1011C18.915 31.7073 20.2171 33.0093 21.8233 33.0093Z" fill="#E88870"/>
<path d="M21.8662 27.044L22.707 37.9355L35.4023 45.3532C36.2805 45.6812 37.2493 45.6708 38.1202 45.324C38.9912 44.9772 39.702 44.3187 40.1143 43.4768C41.941 39.7355 44.8722 33.8292 44.4862 31.6299C43.9129 28.3816 42.3843 27.2351 42.3843 27.2351L43.0206 23.425C43.2595 21.9899 43.5671 20.4919 43.2117 19.0492C42.8047 17.3964 41.555 16.6894 40.527 15.4531C37.8213 18.9384 33.373 20.9084 29.4884 22.9052C27.4839 23.9447 21.8662 27.044 21.8662 27.044Z" fill="#F2A196"/>
<path d="M36.1066 26.1079C36.0913 26.1729 38.6594 33.0097 38.6594 33.0097L35.2314 33.1778" stroke="#00214E" stroke-width="2.18376" stroke-miterlimit="10"/>
<path d="M27.9902 24.7834C29.7592 24.4181 31.5786 24.367 33.3653 24.6324" stroke="#00214E" stroke-width="2.18376" stroke-miterlimit="10"/>
<path d="M39.2734 24.8047C40.3657 24.5523 41.4911 24.4742 42.6078 24.5735" stroke="#00214E" stroke-width="2.18376" stroke-miterlimit="10"/>
<path d="M31.7197 35.0883C31.7459 35.047 31.7802 35.0115 31.8207 34.9841C31.8612 34.9566 31.9069 34.9378 31.9549 34.9289C32.003 34.9199 32.0524 34.921 32.1 34.932C32.1477 34.9429 32.1925 34.9637 32.2318 34.9928C32.6293 35.2718 33.3554 35.8641 34.3872 36.0686C35.7935 36.3494 37.0126 35.7858 37.305 36.1488C37.4693 36.3533 37.2687 36.6036 36.8846 36.9131C36.4824 37.2143 36.0239 37.4319 35.5362 37.553C35.0485 37.6741 34.5416 37.6963 34.0452 37.6182C32.6923 37.3641 31.6758 35.7972 31.6758 35.2412C31.6774 35.1873 31.6925 35.1348 31.7197 35.0883Z" fill="white"/>
<path d="M31.2148 26.9751C32.3804 26.9847 32.3804 28.7655 31.2148 28.7751H31.1613C29.9957 28.7655 29.9957 26.9847 31.1613 26.9751H31.2148Z" fill="#00214E"/>
<path d="M40.8193 26.853C41.9008 26.853 41.9008 28.5154 40.8193 28.5231H40.7715C39.6881 28.5231 39.6881 26.8607 40.7715 26.853H40.8193Z" fill="#00214E"/>
</svg>
