<svg width="34" height="37" viewBox="0 0 34 37" fill="none" xmlns="http://www.w3.org/2000/svg">
<g filter="url(#filter0_d_558_2258)">
<path d="M5.75 27.5H28.25" stroke="white" stroke-width="2" stroke-linecap="round" stroke-linejoin="round"/>
<path d="M5.75 21.25C5.75 22.4285 5.75 23.0177 6.11611 23.3839C6.48224 23.75 7.07149 23.75 8.25 23.75C9.42851 23.75 10.0178 23.75 10.3839 23.3839C10.75 23.0177 10.75 22.4285 10.75 21.25V13.75C10.75 12.5715 10.75 11.9822 10.3839 11.6161C10.0178 11.25 9.42851 11.25 8.25 11.25C7.07149 11.25 6.48224 11.25 6.11611 11.6161C5.75 11.9822 5.75 12.5715 5.75 13.75V16.25" stroke="white" stroke-width="2" stroke-linecap="round"/>
<path d="M14.5 8.75C14.5 7.57149 14.5 6.98224 14.8661 6.61611C15.2323 6.25 15.8215 6.25 17 6.25C18.1785 6.25 18.7677 6.25 19.1339 6.61611C19.5 6.98224 19.5 7.57149 19.5 8.75V21.25C19.5 22.4285 19.5 23.0177 19.1339 23.3839C18.7677 23.75 18.1785 23.75 17 23.75C15.8215 23.75 15.2323 23.75 14.8661 23.3839C14.5 23.0177 14.5 22.4285 14.5 21.25V8.75Z" stroke="white" stroke-width="2"/>
<path d="M28.25 13.75V21.25C28.25 22.4285 28.25 23.0177 27.8839 23.3839C27.5177 23.75 26.9285 23.75 25.75 23.75C24.5715 23.75 23.9823 23.75 23.6161 23.3839C23.25 23.0177 23.25 22.4285 23.25 21.25V5C23.25 3.82149 23.25 3.23224 23.6161 2.86611C23.9823 2.5 24.5715 2.5 25.75 2.5C26.9285 2.5 27.5177 2.5 27.8839 2.86611C28.25 3.23224 28.25 3.82149 28.25 5V8.75" stroke="white" stroke-width="2" stroke-linecap="round"/>
</g>
<defs>
<filter id="filter0_d_558_2258" x="-2" y="0" width="38" height="38" filterUnits="userSpaceOnUse" color-interpolation-filters="sRGB">
<feFlood flood-opacity="0" result="BackgroundImageFix"/>
<feColorMatrix in="SourceAlpha" type="matrix" values="0 0 0 0 0 0 0 0 0 0 0 0 0 0 0 0 0 0 127 0" result="hardAlpha"/>
<feOffset dy="4"/>
<feGaussianBlur stdDeviation="2"/>
<feComposite in2="hardAlpha" operator="out"/>
<feColorMatrix type="matrix" values="0 0 0 0 0 0 0 0 0 0 0 0 0 0 0 0 0 0 0.25 0"/>
<feBlend mode="normal" in2="BackgroundImageFix" result="effect1_dropShadow_558_2258"/>
<feBlend mode="normal" in="SourceGraphic" in2="effect1_dropShadow_558_2258" result="shape"/>
</filter>
</defs>
</svg>
