<svg width="25" height="24" viewBox="0 0 25 24" fill="none" xmlns="http://www.w3.org/2000/svg">
<g clip-path="url(#clip0_682_1212)">
<path d="M18.7359 9.14698C18.847 9.2112 18.9679 9.24167 19.0874 9.24167C19.3302 9.24167 19.5665 9.11558 19.6968 8.89011C19.7605 8.77995 19.791 8.65948 19.7915 8.54042C19.792 8.29714 19.6659 8.05995 19.4399 7.92964C19.1038 7.73511 18.674 7.84995 18.4795 8.18605C18.4157 8.29667 18.3852 8.41714 18.3848 8.53573C18.3843 8.77948 18.5104 9.0162 18.7359 9.14698Z" fill="white"/>
<path d="M12.4303 14.2617C12.2063 14.3925 12.0816 14.6283 12.082 14.8701C12.082 14.9901 12.113 15.112 12.1781 15.2236C12.3089 15.4472 12.5442 15.5718 12.7856 15.5718C12.9061 15.5718 13.0284 15.5409 13.1395 15.4758C13.3636 15.345 13.4883 15.1097 13.4883 14.8673C13.4883 14.7473 13.4573 14.6254 13.3922 14.5143C13.1963 14.1787 12.7659 14.0658 12.4303 14.2617Z" fill="white"/>
<path d="M14.4482 9.25448C14.5691 9.25448 14.6915 9.22354 14.803 9.15792C15.0266 9.02667 15.1513 8.79089 15.1509 8.54901C15.1504 8.42901 15.1195 8.30714 15.0543 8.19558C14.8579 7.86089 14.4271 7.74839 14.092 7.94479C13.8684 8.07558 13.7437 8.31136 13.7441 8.55323C13.7446 8.6737 13.7755 8.79558 13.8407 8.90667C13.9715 9.13026 14.2068 9.25448 14.4482 9.25448Z" fill="white"/>
<path d="M12.16 13.2656C12.5468 13.2638 12.8594 12.9502 12.8604 12.5639V12.5597C12.8585 12.1711 12.5425 11.8575 12.1544 11.8594C11.7672 11.8613 11.455 12.1749 11.4541 12.5611V12.5653C11.4555 12.953 11.77 13.2656 12.1572 13.2656H12.16Z" fill="white"/>
<path d="M16.7793 8.62305C17.1674 8.62305 17.4824 8.30805 17.4824 7.91992C17.4824 7.5318 17.1674 7.2168 16.7793 7.2168C16.3907 7.2168 16.0762 7.5318 16.0762 7.91992C16.0762 8.30852 16.3907 8.62305 16.7793 8.62305Z" fill="white"/>
<path d="M12.4154 10.8607C12.5256 10.924 12.6456 10.954 12.7642 10.954C13.0079 10.954 13.2451 10.827 13.375 10.6001C13.4382 10.4895 13.4682 10.369 13.4682 10.2499C13.4678 10.0066 13.3407 9.7704 13.1143 9.64056C12.7773 9.44743 12.3475 9.56415 12.1548 9.90118C12.0911 10.0118 12.0615 10.1323 12.0615 10.2513C12.062 10.4946 12.189 10.7313 12.4154 10.8607Z" fill="white"/>
<path d="M14.8321 15.9437C14.495 15.7501 14.0652 15.8664 13.8721 16.2034C13.8083 16.3136 13.7783 16.434 13.7783 16.5531C13.7783 16.7964 13.9054 17.0331 14.1313 17.1634V17.163C14.2419 17.2267 14.3624 17.2567 14.481 17.2567C14.7247 17.2567 14.9614 17.1301 15.0913 16.9037C15.155 16.7931 15.185 16.6726 15.185 16.554C15.185 16.3103 15.058 16.0736 14.8321 15.9437Z" fill="white"/>
<path d="M21.1377 14.2365C20.8011 14.0429 20.3713 14.1582 20.1772 14.4947C20.1135 14.6049 20.0835 14.7254 20.083 14.8444C20.083 15.0877 20.2091 15.3244 20.4355 15.4547C20.5461 15.5185 20.6666 15.549 20.7857 15.549C21.0289 15.549 21.2652 15.4229 21.3955 15.1969C21.4593 15.0863 21.4893 14.9658 21.4897 14.8472C21.4897 14.6035 21.3636 14.3668 21.1377 14.2365Z" fill="white"/>
<path d="M20.7812 10.9311C20.9012 10.9311 21.0221 10.9006 21.1332 10.8359C21.3578 10.7056 21.4834 10.4708 21.4839 10.2284C21.4839 10.1084 21.4534 9.98657 21.3887 9.87501C21.1937 9.53892 20.7634 9.42454 20.4278 9.61954C20.2032 9.74985 20.0776 9.98517 20.0771 10.227C20.0771 10.347 20.1076 10.4689 20.1723 10.5805C20.3026 10.8055 20.5389 10.9311 20.7812 10.9311Z" fill="white"/>
<path d="M21.4004 11.833C21.0118 11.8335 20.6978 12.1485 20.6982 12.5371C20.6987 12.9247 21.0137 13.2393 21.4014 13.2393H21.4023C21.7909 13.2383 22.105 12.9233 22.1045 12.5347C22.104 12.1466 21.7886 11.8321 21.4004 11.833Z" fill="white"/>
<path d="M16.7906 16.4619C16.4025 16.4629 16.0884 16.7788 16.0898 17.1669C16.0908 17.5546 16.4053 17.8682 16.7925 17.8682H16.7948C17.183 17.8672 17.497 17.5513 17.4961 17.1632C17.4947 16.7746 17.1792 16.461 16.7906 16.4619Z" fill="white"/>
<path d="M18.7462 15.9325C18.5221 16.0628 18.397 16.2981 18.3965 16.5405C18.3965 16.6605 18.4274 16.7824 18.4921 16.8939C18.6229 17.118 18.8587 17.2431 19.1005 17.2431C19.2205 17.2431 19.3424 17.2127 19.4535 17.148C19.6776 17.0172 19.8032 16.7819 19.8032 16.54C19.8032 16.4195 19.7723 16.2977 19.7076 16.1866C19.5121 15.8509 19.0818 15.737 18.7462 15.9325Z" fill="white"/>
<path d="M16.7793 19.0241C13.2054 19.0241 10.2979 16.1165 10.2979 12.5427C10.2979 8.96884 13.2054 6.06127 16.7793 6.06127C20.3531 6.06127 23.2607 8.96884 23.2607 12.5427C23.2607 16.1165 20.3531 19.0241 16.7793 19.0241ZM22.1761 6.79599L22.5529 6.41912L23.1601 7.02624C23.2974 7.16359 23.4773 7.23221 23.6573 7.23221C23.8372 7.23221 24.0172 7.16359 24.1544 7.02624C24.429 6.75165 24.429 6.30648 24.1544 6.03188L23.0512 4.92868C23.0509 4.9283 23.0506 4.92788 23.0501 4.92751C23.0498 4.92713 23.0494 4.9268 23.049 4.92643L21.8988 3.77626C21.6243 3.50166 21.179 3.50166 20.9044 3.77626C20.6299 4.05085 20.6299 4.49602 20.9044 4.77062L21.5586 5.42476L21.0616 5.92177C19.8275 5.12087 18.3569 4.65502 16.7793 4.65502C15.2017 4.65502 13.731 5.12087 12.497 5.92182L12 5.42476L12.6541 4.77062C12.9287 4.49602 12.9287 4.05085 12.6541 3.77626C12.3795 3.50166 11.9343 3.50166 11.6597 3.77626L10.5097 4.92634C10.5093 4.92676 10.5088 4.92709 10.5084 4.92751C10.5079 4.92793 10.5076 4.9284 10.5072 4.92882L9.40413 6.03188C9.12954 6.30648 9.12954 6.7517 9.40413 7.02624C9.54138 7.16359 9.72134 7.23221 9.90129 7.23221C10.0812 7.23221 10.2612 7.16359 10.3984 7.02624L11.0056 6.41916L11.3824 6.79604C9.85024 8.2358 8.8916 10.2793 8.8916 12.5427C8.8916 16.8919 12.43 20.4303 16.7793 20.4303C21.1286 20.4303 24.667 16.8919 24.667 12.5427C24.667 10.2792 23.7083 8.2358 22.1761 6.79599Z" fill="white"/>
<path d="M16.9853 13.8325L18.5707 12.2472C18.8454 11.9727 18.8454 11.5275 18.5708 11.2529C18.2962 10.9782 17.851 10.9782 17.5764 11.2528L16.4881 12.341L15.9825 11.8355C15.7079 11.5609 15.2627 11.5609 14.9881 11.8355C14.7136 12.1102 14.7136 12.5553 14.9882 12.8299L15.991 13.8325C16.1283 13.9698 16.3082 14.0385 16.4881 14.0385C16.668 14.0385 16.848 13.9698 16.9853 13.8325Z" fill="white"/>
<path d="M7.18207 6.41162H5.21191C4.8236 6.41162 4.50879 6.72643 4.50879 7.11475C4.50879 7.50306 4.8236 7.81787 5.21191 7.81787H7.18207C7.57038 7.81787 7.8852 7.50306 7.8852 7.11475C7.8852 6.72643 7.57038 6.41162 7.18207 6.41162Z" fill="white"/>
<path d="M7.18162 9.12549H4.47754C4.08923 9.12549 3.77441 9.4403 3.77441 9.82861C3.77441 10.2169 4.08923 10.5317 4.47754 10.5317H7.18162C7.56993 10.5317 7.88474 10.2169 7.88474 9.82861C7.88474 9.4403 7.56993 9.12549 7.18162 9.12549Z" fill="white"/>
<path d="M7.18132 11.8394H3.29004C2.90173 11.8394 2.58691 12.1542 2.58691 12.5425C2.58691 12.9308 2.90173 13.2456 3.29004 13.2456H7.18132C7.56963 13.2456 7.88445 12.9308 7.88445 12.5425C7.88445 12.1542 7.56963 11.8394 7.18132 11.8394Z" fill="white"/>
<path d="M7.18143 14.5527H2.32129C1.93298 14.5527 1.61816 14.8675 1.61816 15.2559C1.61816 15.6442 1.93298 15.959 2.32129 15.959H7.18143C7.56974 15.959 7.88455 15.6442 7.88455 15.2559C7.88455 14.8675 7.56974 14.5527 7.18143 14.5527Z" fill="white"/>
<path d="M7.18177 17.2671H1.37012C0.981804 17.2671 0.666992 17.5819 0.666992 17.9702C0.666992 18.3585 0.981804 18.6733 1.37012 18.6733H7.18177C7.57009 18.6733 7.8849 18.3585 7.8849 17.9702C7.8849 17.5819 7.57009 17.2671 7.18177 17.2671Z" fill="white"/>
</g>
<defs>
<clipPath id="clip0_682_1212">
<rect width="24" height="24" fill="white" transform="translate(0.666992)"/>
</clipPath>
</defs>
</svg>
