<svg width="30" height="30" viewBox="0 0 30 30" fill="none" xmlns="http://www.w3.org/2000/svg">
<path d="M7.42768 26.2442C5.92832 26.2442 4.7074 25.0234 4.7074 23.523V11.6443H24.0271V17.9781C24.74 18.151 25.4076 18.4352 26.0146 18.8119L25.9886 5.65686C25.9868 4.75563 25.2558 4.02602 24.3545 4.02602H24.3538V3.35647C24.3538 1.77537 23.0677 0.490234 21.4495 0.490234C19.8697 0.490234 18.5839 1.77531 18.5839 3.35647V4.02596H17.2525V3.35647C17.2525 1.77537 15.9664 0.490234 14.3479 0.490234C12.7683 0.490234 11.4822 1.77531 11.4822 3.35647V4.02596H10.1508V3.35647C10.1508 1.77537 8.86498 0.490234 7.2465 0.490234C5.6667 0.490234 4.38162 1.77531 4.38162 3.35647V4.02596C3.4801 4.02596 2.74885 4.75604 2.74744 5.6575L2.71973 23.523C2.71973 26.1196 4.83191 28.2314 7.42762 28.2314H16.5754C16.1995 27.6242 15.9182 26.9562 15.7455 26.2442H7.42768V26.2442ZM20.5703 3.35641C20.5703 2.87201 20.9641 2.47727 21.4871 2.47727C21.9716 2.47727 22.3652 2.87201 22.3652 3.35641V6.73094C22.3652 7.21539 21.9716 7.60902 21.4871 7.60902H21.4495C20.9641 7.60902 20.5703 7.21533 20.5703 6.73094V3.35641ZM13.469 3.35641C13.469 2.87201 13.8636 2.47727 14.3857 2.47727C14.87 2.47727 15.2649 2.87201 15.2649 3.35641V6.73094C15.2649 7.21539 14.87 7.60902 14.3857 7.60902H14.3471C13.8636 7.60902 13.469 7.21533 13.469 6.73094V3.35641ZM6.36842 3.35641C6.36842 2.87201 6.76199 2.47727 7.28436 2.47727C7.76969 2.47727 8.16244 2.87201 8.16244 3.35641V6.73094C8.16244 7.21539 7.76969 7.60902 7.28436 7.60902H7.2465C6.76193 7.60902 6.36842 7.21533 6.36842 6.73094V3.35641Z" fill="white"/>
<path d="M22.4064 19.7637C19.7155 19.7637 17.5342 21.9456 17.5342 24.6368C17.5342 27.3287 19.7155 29.5103 22.4064 29.5103C25.0993 29.5103 27.2807 27.3287 27.2807 24.6368C27.2807 21.9456 25.0993 19.7637 22.4064 19.7637ZM24.3025 25.8104C24.2081 25.9625 24.0456 26.0456 23.8795 26.0456C23.7906 26.0456 23.7002 26.0219 23.6189 25.9714L22.1459 25.0593C21.9986 24.9687 21.9098 24.8091 21.9098 24.6368V21.7569C21.9098 21.4822 22.1327 21.2598 22.4064 21.2598C22.6822 21.2598 22.9041 21.4822 22.9041 21.7569V24.3601L24.1421 25.1263C24.3742 25.2708 24.4471 25.5766 24.3025 25.8104Z" fill="white"/>
<path d="M15.7106 18.6253V18.5946C16.9249 18.1692 17.5178 17.3501 17.5178 16.302C17.5178 14.9513 16.3489 13.8428 14.2386 13.8428C13.21 13.8428 12.2409 14.08 11.5937 14.3707C11.3554 14.4778 11.2308 14.7432 11.3018 14.9947L11.4869 15.6511C11.5277 15.7956 11.6282 15.916 11.7631 15.9819C11.8981 16.0479 12.0548 16.053 12.1939 15.9966C12.6271 15.8207 13.1846 15.6651 13.722 15.6651C14.6948 15.6651 15.18 16.1056 15.18 16.6971C15.18 17.5322 14.1923 17.8208 13.4181 17.8359H13.0506C12.7591 17.8359 12.5229 18.0721 12.5229 18.3636V18.9624C12.5229 19.2538 12.7591 19.4901 13.0506 19.4901H13.4644C14.4813 19.4901 15.453 19.9311 15.453 20.9027C15.453 21.6463 14.8457 22.2236 13.6466 22.2236C13.0059 22.2236 12.3661 22.0409 11.8934 21.8572C11.754 21.803 11.5981 21.8106 11.4646 21.878C11.331 21.9453 11.2318 22.0661 11.1925 22.2105L10.9942 22.9401C10.9258 23.1916 11.0511 23.4542 11.2892 23.5601C11.9013 23.8322 12.794 24.0451 13.8128 24.0451C14.4879 24.0451 15.0847 23.9459 15.6068 23.7769C15.8004 22.2473 16.4944 20.8724 17.5245 19.8267C17.1457 19.1923 16.4793 18.7632 15.7106 18.6253Z" fill="white"/>
</svg>
