<svg width="38" height="38" viewBox="0 0 38 38" fill="none" xmlns="http://www.w3.org/2000/svg">
<g clip-path="url(#clip0_558_2264)" filter="url(#filter0_d_558_2264)">
<path d="M33.0625 0H4.9375C4.68886 0 4.4504 0.0987721 4.27459 0.274587C4.09877 0.450403 4 0.68886 4 0.9375V7.19063C4 7.43927 4.09877 7.67772 4.27459 7.85354C4.4504 8.02935 4.68886 8.12813 4.9375 8.12813H33.0625C33.3111 8.12813 33.5496 8.02935 33.7254 7.85354C33.9012 7.67772 34 7.43927 34 7.19063V0.9375C34 0.68886 33.9012 0.450403 33.7254 0.274587C33.5496 0.0987721 33.3111 0 33.0625 0ZM30.8781 3.44063H32.125V4.6875H30.8781V3.44063ZM5.875 1.875H29.2469C29.0906 2.04694 29.0037 2.27078 29.0031 2.50313V5.625C29.0037 5.85735 29.0906 6.08119 29.2469 6.25313H5.875V1.875Z" fill="#1C274C"/>
<path d="M33.0625 10.9404H4.9375C4.68886 10.9404 4.4504 11.0392 4.27459 11.215C4.09877 11.3908 4 11.6293 4 11.8779V18.1217C4 18.3703 4.09877 18.6088 4.27459 18.7846C4.4504 18.9604 4.68886 19.0592 4.9375 19.0592H33.0625C33.3111 19.0592 33.5496 18.9604 33.7254 18.7846C33.9012 18.6088 34 18.3703 34 18.1217V11.8779C34 11.6293 33.9012 11.3908 33.7254 11.215C33.5496 11.0392 33.3111 10.9404 33.0625 10.9404ZM21.5031 14.3717H32.125V15.6279H21.5031V14.3717ZM5.875 12.8154H19.8719C19.7177 12.985 19.631 13.2051 19.6281 13.4342V16.5654C19.631 16.7945 19.7177 17.0146 19.8719 17.1842H5.875V12.8154Z" fill="#1C274C"/>
<path d="M33.0625 21.8721H4.9375C4.68886 21.8721 4.4504 21.9708 4.27459 22.1467C4.09877 22.3225 4 22.5609 4 22.8096V29.0627C4 29.3113 4.09877 29.5498 4.27459 29.7256C4.4504 29.9014 4.68886 30.0002 4.9375 30.0002H33.0625C33.3111 30.0002 33.5496 29.9014 33.7254 29.7256C33.9012 29.5498 34 29.3113 34 29.0627V22.8096C34 22.5609 33.9012 22.3225 33.7254 22.1467C33.5496 21.9708 33.3111 21.8721 33.0625 21.8721ZM30.8781 25.3127H32.125V26.5596H30.8781V25.3127ZM5.875 23.7471H29.2469C29.0906 23.919 29.0037 24.1428 29.0031 24.3752V27.4971C29.0037 27.7294 29.0906 27.9533 29.2469 28.1252H5.875V23.7471Z" fill="#1C274C"/>
</g>
<defs>
<filter id="filter0_d_558_2264" x="0" y="0" width="38" height="38" filterUnits="userSpaceOnUse" color-interpolation-filters="sRGB">
<feFlood flood-opacity="0" result="BackgroundImageFix"/>
<feColorMatrix in="SourceAlpha" type="matrix" values="0 0 0 0 0 0 0 0 0 0 0 0 0 0 0 0 0 0 127 0" result="hardAlpha"/>
<feOffset dy="4"/>
<feGaussianBlur stdDeviation="2"/>
<feComposite in2="hardAlpha" operator="out"/>
<feColorMatrix type="matrix" values="0 0 0 0 0 0 0 0 0 0 0 0 0 0 0 0 0 0 0.25 0"/>
<feBlend mode="normal" in2="BackgroundImageFix" result="effect1_dropShadow_558_2264"/>
<feBlend mode="normal" in="SourceGraphic" in2="effect1_dropShadow_558_2264" result="shape"/>
</filter>
<clipPath id="clip0_558_2264">
<rect width="30" height="30" fill="white" transform="translate(4)"/>
</clipPath>
</defs>
</svg>
